<svg xmlns="http://www.w3.org/2000/svg" viewBox="0 0 140 110"><defs><clipPath id="e"><ellipse cx="70" cy="55" rx="52" ry="38"/></clipPath></defs><g clip-path="url(#e)" opacity="0.5"><line stroke="#3f454c" stroke-width="1" fill="none" x1="-40" y1="20" x2="20" y2="90"/><line stroke="#3f454c" stroke-width="1" fill="none" x1="-31" y1="20" x2="29" y2="90"/><line stroke="#3f454c" stroke-width="1" fill="none" x1="-22" y1="20" x2="38" y2="90"/><line stroke="#3f454c" stroke-width="1" fill="none" x1="-13" y1="20" x2="47" y2="90"/><line stroke="#3f454c" stroke-width="1" fill="none" x1="-4" y1="20" x2="56" y2="90"/><line stroke="#3f454c" stroke-width="1" fill="none" x1="5" y1="20" x2="65" y2="90"/><line stroke="#3f454c" stroke-width="1" fill="none" x1="14" y1="20" x2="74" y2="90"/><line stroke="#3f454c" stroke-width="1" fill="none" x1="23" y1="20" x2="83" y2="90"/><line stroke="#3f454c" stroke-width="1" fill="none" x1="32" y1="20" x2="92" y2="90"/><line stroke="#3f454c" stroke-width="1" fill="none" x1="41" y1="20" x2="101" y2="90"/><line stroke="#3f454c" stroke-width="1" fill="none" x1="50" y1="20" x2="110" y2="90"/><line stroke="#3f454c" stroke-width="1" fill="none" x1="59" y1="20" x2="119" y2="90"/><line stroke="#3f454c" stroke-width="1" fill="none" x1="68" y1="20" x2="128" y2="90"/><line stroke="#3f454c" stroke-width="1" fill="none" x1="77" y1="20" x2="137" y2="90"/><line stroke="#3f454c" stroke-width="1" fill="none" x1="86" y1="20" x2="146" y2="90"/><line stroke="#3f454c" stroke-width="1" fill="none" x1="95" y1="20" x2="155" y2="90"/><line stroke="#3f454c" stroke-width="1" fill="none" x1="104" y1="20" x2="164" y2="90"/><line stroke="#3f454c" stroke-width="1" fill="none" x1="113" y1="20" x2="173" y2="90"/></g><ellipse cx="70" cy="55" rx="52" ry="38" stroke="#3f454c" stroke-width="1.4" fill="none" stroke-dasharray="5,4"/><g stroke="#3f454c" stroke-width="1.4" fill="none"><circle cx="70" cy="55" r="4"/><ellipse cx="82" cy="55" rx="7" ry="4" transform="rotate(0 82 55)"/><ellipse cx="73.70820393249937" cy="66.41267819554184" rx="7" ry="4" transform="rotate(72 73.70820393249937 66.41267819554184)"/><ellipse cx="60.291796067500634" cy="62.05342302750968" rx="7" ry="4" transform="rotate(144 60.291796067500634 62.05342302750968)"/><ellipse cx="60.29179606750063" cy="47.94657697249032" rx="7" ry="4" transform="rotate(216 60.29179606750063 47.94657697249032)"/><ellipse cx="73.70820393249937" cy="43.587321804458156" rx="7" ry="4" transform="rotate(288 73.70820393249937 43.587321804458156)"/></g></svg>