<svg xmlns="http://www.w3.org/2000/svg" viewBox="0 0 140 110"><line stroke="#3f454c" stroke-width="1.6" fill="none" stroke-linejoin="round" stroke-linecap="round" x1="12" y1="78" x2="128" y2="78"/><path stroke="#3f454c" stroke-width="1" fill="none" d="M12,78 C13.933333333333334,44 22.955555555555556,44 24.88888888888889,78"/><path stroke="#3f454c" stroke-width="1" fill="none" d="M24.88888888888889,78 C26.822222222222223,44 35.84444444444445,44 37.77777777777778,78"/><path stroke="#3f454c" stroke-width="1" fill="none" d="M37.77777777777778,78 C39.71111111111111,44 48.733333333333334,44 50.66666666666667,78"/><path stroke="#3f454c" stroke-width="1" fill="none" d="M50.66666666666667,78 C52.6,44 61.62222222222223,44 63.55555555555556,78"/><path stroke="#3f454c" stroke-width="1" fill="none" d="M63.55555555555556,78 C65.4888888888889,44 74.51111111111112,44 76.44444444444444,78"/><path stroke="#3f454c" stroke-width="1" fill="none" d="M76.44444444444444,78 C78.37777777777778,44 87.4,44 89.33333333333333,78"/><path stroke="#3f454c" stroke-width="1" fill="none" d="M89.33333333333334,78 C91.26666666666668,44 100.28888888888889,44 102.22222222222223,78"/><path stroke="#3f454c" stroke-width="1" fill="none" d="M102.22222222222223,78 C104.15555555555557,44 113.17777777777778,44 115.11111111111111,78"/><path stroke="#3f454c" stroke-width="1" fill="none" d="M115.11111111111111,78 C117.04444444444445,44 126.06666666666666,44 128,78"/><line stroke="#3f454c" stroke-width="1" fill="none" x1="12" y1="72" x2="12" y2="84"/><line stroke="#3f454c" stroke-width="1" fill="none" x1="128" y1="72" x2="128" y2="84"/></svg>