<svg xmlns="http://www.w3.org/2000/svg" viewBox="0 0 140 110"><path stroke="#3f454c" stroke-width="1.6" fill="none" stroke-linejoin="round" stroke-linecap="round" d="M20,26 C40,16 100,16 120,26 L120,44 C100,58 40,58 20,44 Z"/><path stroke="#3f454c" stroke-width="1" fill="none" d="M20,44 C50,60 90,60 120,44" stroke-dasharray="4,3"/><path stroke="#3f454c" stroke-width="1.6" fill="none" stroke-linejoin="round" stroke-linecap="round" d="M20,44 L20,92 C50,102 90,102 120,92 L120,44"/><g opacity="0.4"><line stroke="#3f454c" stroke-width="1" fill="none" x1="24" y1="24" x2="18" y2="50"/><line stroke="#3f454c" stroke-width="1" fill="none" x1="39" y1="24" x2="33" y2="50"/><line stroke="#3f454c" stroke-width="1" fill="none" x1="54" y1="24" x2="48" y2="50"/><line stroke="#3f454c" stroke-width="1" fill="none" x1="69" y1="24" x2="63" y2="50"/><line stroke="#3f454c" stroke-width="1" fill="none" x1="84" y1="24" x2="78" y2="50"/><line stroke="#3f454c" stroke-width="1" fill="none" x1="99" y1="24" x2="93" y2="50"/><line stroke="#3f454c" stroke-width="1" fill="none" x1="114" y1="24" x2="108" y2="50"/></g></svg>